<svg xmlns="http://www.w3.org/2000/svg" viewBox="0 0 480 200" width="480" height="200"><path fill="#15161B" d="M18 111L36.7 108.7L166.4 108.7L185.2 111L166.4 113.4L36.7 113.4ZM106.3 108.7A26.7 26.7 0 0 1 159.8 108.7ZM211.9 146.8L247.4 54.5L256.7 54.5L292.2 146.8ZM231.3 146.8L272.8 146.8L252 92.6ZM236 106.7L268.1 106.7L268.1 122.1L236 122.1ZM304.2 79.9L321.6 79.9L321.6 116.7L304.2 116.7ZM351 79.9L368.4 79.9L368.4 116.7L351 116.7ZM304.2 116.7A32.1 32.1 0 0 0 368.4 116.7L351 116.7A14.7 14.7 0 0 1 321.6 116.7ZM384.4 79.9L401.8 79.9L401.8 146.8L384.4 146.8ZM401.8 79.9A30.8 30.8 0 0 1 432.6 110.7L415.2 110.7A13.4 13.4 0 0 0 401.8 97.3ZM444.6 79.9L462 79.9L462 146.8L444.6 146.8ZM443.3 61.2A10 10 0 1 1 463.3 61.2A10 10 0 1 1 443.3 61.2Z"/></svg>