<svg xmlns="http://www.w3.org/2000/svg" viewBox="0 0 480 200" width="480" height="200"><path fill="#15161B" d="M132.8 105.6L155.2 47.1L165.8 47.1L188.2 105.6ZM115.5 150.6L129.3 114.6L191.7 114.6L205.5 150.6ZM166.5 105.6L160.5 89.9L154.5 105.6ZM137.2 150.6L183.8 150.6L170 114.6L151 114.6ZM225 47.1L244.5 47.1L244.5 105.6L225 105.6ZM244.5 114.6L244.5 114.6L225 114.6L225 114.6ZM282 47.1L301.5 47.1L301.5 105.6L282 105.6ZM301.5 114.6L301.5 114.6L282 114.6L282 114.6ZM225 114.6A38.2 38.2 0 0 0 301.5 114.6L282 114.6A18.8 18.8 0 0 1 244.5 114.6ZM321 47.1L340.5 47.1L340.5 105.6L321 105.6ZM340.5 114.6L340.5 150.6L321 150.6L321 114.6ZM340.5 47.1L355.5 47.1A29.2 29.2 0 0 1 355.5 105.6L340.5 105.6ZM340.5 88.4L355.5 88.4A12 12 0 0 0 355.5 64.4L340.5 64.4ZM351 96.6L370.5 96.6L375 105.6L355.5 105.6ZM379.5 114.6L397.5 150.6L378 150.6L360 114.6ZM417 47.1L436.5 47.1L436.5 105.6L417 105.6ZM436.5 114.6L436.5 150.6L417 150.6L417 114.6ZM18 110.1L70.5 107.9L444 107.9L462 110.1L444 112.4L70.5 112.4Z"/></svg>