<svg xmlns="http://www.w3.org/2000/svg" viewBox="0 0 480 200" width="480" height="200"><path fill="#15161B" d="M119.9 163.7L168.1 38.1L180.9 38.1L229.1 163.7ZM146.3 163.7L202.7 163.7L174.5 90ZM18 119.6Q98.2 115.9 196.3 109.1L196.3 130Q98.2 123.2 18 119.6ZM245.5 72.7L269.1 72.7L269.1 122.7L245.5 122.7ZM309.1 72.7L332.8 72.7L332.8 122.7L309.1 122.7ZM245.5 122.7A43.7 43.7 0 0 0 332.8 122.7L309.1 122.7A20 20 0 0 1 269.1 122.7ZM354.6 72.7L378.3 72.7L378.3 163.7L354.6 163.7ZM378.3 72.7A41.9 41.9 0 0 1 420.1 114.6L396.5 114.6A18.2 18.2 0 0 0 378.3 96.4ZM436.5 72.7L460.2 72.7L460.2 163.7L436.5 163.7ZM434.7 47.2A13.6 13.6 0 1 1 462 47.2A13.6 13.6 0 1 1 434.7 47.2Z"/></svg>