<svg xmlns="http://www.w3.org/2000/svg" viewBox="0 0 480 200" width="480" height="200"><path fill="#15161B" d="M39.9 124.8A57.2 57.2 0 1 1 154.2 124.8A57.2 57.2 0 1 1 39.9 124.8ZM67.9 124.8A29.1 29.1 0 1 0 126.2 124.8A29.1 29.1 0 1 0 67.9 124.8ZM126.2 70.9L154.2 70.9L154.2 178.8L126.2 178.8ZM178 70.9L206 70.9L206 130.2L178 130.2ZM253.5 70.9L281.5 70.9L281.5 130.2L253.5 130.2ZM178 130.2A51.8 51.8 0 0 0 281.5 130.2L253.5 130.2A23.7 23.7 0 0 1 206 130.2ZM305.3 70.9L333.3 70.9L333.3 178.8L305.3 178.8ZM333.3 70.9A49.6 49.6 0 0 1 383 120.5L354.9 120.5A21.6 21.6 0 0 0 333.3 98.9ZM400.2 70.9L428.3 70.9L428.3 178.8L400.2 178.8ZM405.6 35.3A17.3 17.3 0 1 1 440.1 35.3A17.3 17.3 0 1 1 405.6 35.3ZM201.7 35.3Q289.6 33.6 397 30.4L397 40.1Q289.6 37 201.7 35.3Z"/></svg>