<svg xmlns="http://www.w3.org/2000/svg" viewBox="0 0 371 152" width="371" height="152"><defs><linearGradient id="au" x1="0" y1="0" x2="0" y2="152" gradientUnits="userSpaceOnUse"><stop offset="0" stop-color="#EAD9AE"/><stop offset=".5" stop-color="#D3B575"/><stop offset="1" stop-color="#B98A2F"/></linearGradient></defs><path fill="url(#au)" d="M0 99A53 53 0 1 1 106 99A53 53 0 1 1 0 99ZM26 99A27 27 0 1 0 80 99A27 27 0 1 0 26 99ZM80 49L106 49L106 149L80 149ZM128 49L154 49L154 104L128 104ZM198 49L224 49L224 104L198 104ZM128 104A48 48 0 0 0 224 104L198 104A22 22 0 0 1 154 104ZM246 49L272 49L272 149L246 149ZM272 49A46 46 0 0 1 318 95L292 95A20 20 0 0 0 272 75ZM334 49L360 49L360 149L334 149ZM339 16A16 16 0 1 1 371 16A16 16 0 1 1 339 16ZM150 16Q231.4 14.4 331 11.5L331 20.5Q231.4 17.6 150 16Z"/></svg>