<svg xmlns="http://www.w3.org/2000/svg" viewBox="0 0 874 116" width="874" height="116" role="img"><defs><marker id="a" viewBox="0 0 10 10" refX="9" refY="5" markerWidth="7" markerHeight="7" orient="auto"><path d="M0 0 L10 5 L0 10 z" fill="#42454E"/></marker></defs><rect x="16" y="16" width="176" height="84" rx="12" fill="#fff" stroke="#E3E1E8"/><rect x="16" y="16" width="3.5" height="84" rx="2" fill="#852152"/><text x="32" y="48" font-family="system-ui,sans-serif" font-size="14.5" font-weight="650" fill="#15161B">Buy gold</text><text x="32" y="68" font-family="system-ui,sans-serif" font-size="11.5" fill="#42454E">own the asset</text><line x1="200" y1="58.0" x2="230" y2="58.0" stroke="#42454E" stroke-width="1.5" marker-end="url(#a)"/><rect x="238" y="16" width="176" height="84" rx="12" fill="#fff" stroke="#E3E1E8"/><rect x="238" y="16" width="3.5" height="84" rx="2" fill="#42454E"/><text x="254" y="48" font-family="system-ui,sans-serif" font-size="14.5" font-weight="650" fill="#15161B">Borrow against it</text><text x="254" y="68" font-family="system-ui,sans-serif" font-size="11.5" fill="#42454E">liquidity without selling</text><line x1="422" y1="58.0" x2="452" y2="58.0" stroke="#42454E" stroke-width="1.5" marker-end="url(#a)"/><rect x="460" y="16" width="176" height="84" rx="12" fill="#fff" stroke="#E3E1E8"/><rect x="460" y="16" width="3.5" height="84" rx="2" fill="#42454E"/><text x="476" y="48" font-family="system-ui,sans-serif" font-size="14.5" font-weight="650" fill="#15161B">Spend or invest</text><text x="476" y="68" font-family="system-ui,sans-serif" font-size="11.5" fill="#42454E">put the cash to work</text><line x1="644" y1="58.0" x2="674" y2="58.0" stroke="#42454E" stroke-width="1.5" marker-end="url(#a)"/><rect x="682" y="16" width="176" height="84" rx="12" fill="#fff" stroke="#E3E1E8"/><rect x="682" y="16" width="3.5" height="84" rx="2" fill="#B08A3E"/><text x="698" y="48" font-family="system-ui,sans-serif" font-size="14.5" font-weight="650" fill="#15161B">Repay</text><text x="698" y="68" font-family="system-ui,sans-serif" font-size="11.5" fill="#42454E">gold stays yours</text><text x="698" y="83" font-family="system-ui,sans-serif" font-size="11.5" fill="#42454E">throughout</text></svg>